# xmcd CD database file
#
# Track frame offsets:
#	150
#	24657
#	46830
#	61920
#	78907
#	100171
#	117714
#	140645
#	164659
#	184440
#	203122
#	223315
#
# Disc length: 3187 seconds
#
# Revision: 0
# Processed by: cddbd v1.5.2PL0 Copyright (c) Steve Scherf et al.
# Submitted via: CDex 1.70beta2
#
DISCID=b70c710c
DTITLE=Kishore Kumar - Golden Collection
DYEAR=1960
DGENRE=Bollywood
TTITLE0=YEH DIL NA HOTA BECHARA
TTITLE1=MERE SAPNO KI RANI
TTITLE2=PYAR DIWANA HOTA HAI
TTITLE3=ROOP TERA MASTANA
TTITLE4=SIMTI SI SHARMAI SI
TTITLE5=SAMA HAI SUHANA SUHANA
TTITLE6=YEH SHAM MASTANI
TTITLE7=O MERE DIL KE CHAIN
TTITLE8=OH HANSINI
TTITLE9=JANI O JANI
TTITLE10=GOOM HAI KISI KE PYAR MEIN
TTITLE11=EK AJNABEE HASEENA SE
EXTD=YEAR: 1960
EXTT0=
EXTT1=
EXTT2=
EXTT3=
EXTT4=
EXTT5=
EXTT6=
EXTT7=
EXTT8=
EXTT9=
EXTT10=
EXTT11=
PLAYORDER=
